<svg width="32" height="32" viewBox="0 0 32 32" fill="none" xmlns="http://www.w3.org/2000/svg">
<path d="M28.3687 23.6688C25.1312 23.1688 24.8875 22.9375 24.8875 22.9375C25.8625 18.3125 23.4875 13.4938 20.1187 10.7125C15.6312 7.01251 8.81248 9.70001 3.49998 4.075C2.26248 2.7625 2.98123 18.7938 9.63123 24.8688C14.4937 29.3063 20.2187 27.9438 21.7875 27.2188C23.2125 26.5563 24.2062 25.1 24.2062 25.1C26.8 25.9125 28.0812 25.9875 28.0812 25.9875C28.9937 26.1 29.4562 23.8375 28.3687 23.6688V23.6688ZM22.6312 24.1313C17.775 22.675 13.55 19.0688 10.8125 16.2438C10.5875 16.0125 10.9125 15.6688 11.1562 15.8688C13.85 18.0875 17.9625 20.8688 23.2375 22.6125C23.25 23.1188 22.9562 23.8438 22.6312 24.1313Z" fill="black"/>
</svg>
